<svg xmlns="http://www.w3.org/2000/svg" xmlns:xlink="http://www.w3.org/1999/xlink" version="1.1" x="0px" y="0px" viewBox="0 0 800 800" enable-background="new 0 0 800 800" xml:space="preserve">

<g id="Objects">
	<g>
		<g>
			<g>
				<path fill="#7C1212" d="M119.7,299.9v29.4c0,0,263.1,270.5,284.5,284.5c0,0,276.1-263.3,276.1-284.5v-25.2L119.7,299.9z"/>
				<path fill="#992828" d="M119.7,299.9l68.8-76.7c0,0,164.1-27.6,436.5,0l55.3,80.9c0,0-218.5,240.8-276.1,288.2      C404.2,592.4,208.5,400.3,119.7,299.9z"/>
				<path fill="#FBB92D" d="M164.8,299.9l41.8-55c0,0,91.9-19.7,393.4,0l40.9,55L404.2,541.7L164.8,299.9z"/>
			</g>
			<g>
				<path fill="#DE912F" d="M453.1,273.5c12.9-30.8,31.3-66.1,46.8-97.8H361.2l-52.3,195.5l65.4-7.2l-47,103l83.8-4.6      c0,0-54.6,109.5-71.9,161.8c35.9-64.4,96.9-146.9,132.8-211.3c-15-0.8-30.3-1.1-46.9-2.1c29.8-43.8,67.6-88.6,97.4-132.4      C509.7,277.2,465.7,272.8,453.1,273.5z"/>
				<polygon fill="#FBB92D" points="436.3,271.9 481.8,175.7 361.8,175.7 331.3,294.1 315.1,357 371.7,351.6 380,350.9 351,418       334.4,456.4 371.7,452.9 398.9,450.3 347.2,607 442,436.7 454.9,413.7 425.1,410.8 413.3,409.7 470,326.3 502.6,278.2       437.8,272.1     "/>
			</g>
		</g>
		<g>
			<g opacity="0.7">
				<path fill="#242424" d="M278.1,276.7v23h24.1v-23h12v57.5h-12v-23h-24.1v23h-12v-57.5H278.1z"/>
				<path fill="#242424" d="M334.3,311.3v11.5h28.1v11.5h-32.1c-5.4,0-8-2.6-8-7.7v-42.2c0-5.1,2.7-7.7,8-7.7h32.1v11.5h-28.1v11.5      h16.1l-4,11.5H334.3z"/>
				<path fill="#242424" d="M409,311.3l9.6,23h-12l-10.1-23h-14.1v23h-12v-49.8c0-5.1,2.7-7.7,8-7.7h32.1c5.3,0,8,2.6,8,7.7v19.2      c0,5.1-2.7,7.7-8,7.7H409z M406.5,299.8v-11.5h-24.1v11.5H406.5z"/>
				<path fill="#242424" d="M474.7,284.4v42.2c0,5.1-2.7,7.7-8,7.7h-32.1c-5.4,0-8-2.6-8-7.7v-42.2c0-5.1,2.7-7.7,8-7.7h32.1      C472,276.7,474.7,279.3,474.7,284.4z M438.6,288.2v34.5h24.1v-34.5H438.6z M443.6,272.9h4l10-5.8l-4-3.8L443.6,272.9z"/>
				<path fill="#242424" d="M494.8,276.7v57.5h-12v-57.5H494.8z"/>
				<path fill="#242424" d="M547,288.2h-32.1v11.5h28.1c5.4,0,8,2.5,8,7.6v19.2c0,5.1-2.7,7.7-8,7.7h-40.1v-11.5l36.1,0v-11.5h-28.1      c-5.4,0-8-2.5-8-7.6v-19.2c0-5.1,2.7-7.7,8-7.7h40.1L547,288.2z"/>
				<path fill="#242424" d="M284.1,412.8H252c-5.4,0-8-2.6-8-7.7v-49.8h12v46h28.1V412.8z"/>
				<path fill="#242424" d="M304.2,389.8v11.5h28.1v11.5h-32.1c-5.4,0-8-2.6-8-7.7v-42.2c0-5.1,2.7-7.7,8-7.7h32.1v11.5h-28.1v11.5      h16.1l-4,11.5H304.2z"/>
				<path fill="#242424" d="M352.3,355.3v57.5h-12v-57.5H352.3z"/>
				<path fill="#242424" d="M404.5,355.3v11.5h-16.1v46h-12v-46h-16.1v-11.5H404.5z"/>
				<path fill="#242424" d="M424.5,355.3v46h24.1l0-46h12v49.8c0,5.1-2.7,7.7-8,7.7h-32.1c-5.3,0-8-2.6-8-7.7v-49.8H424.5z"/>
				<path fill="#242424" d="M507.3,389.8l9.6,23h-12l-10.1-23h-14.1v23h-12v-49.8c0-5.1,2.7-7.7,8-7.7h32.1c5.4,0,8,2.6,8,7.7v19.2      c0,5.1-2.7,7.7-8,7.7H507.3z M504.8,378.3v-11.5h-24.1v11.5H504.8z"/>
				<path fill="#242424" d="M524.9,412.8v-49.9c0-5.1,2.7-7.7,8-7.7H565c5.4,0,8,2.6,8,7.7v49.9h-12v-15.4h-24.1v15.4H524.9z       M561,366.7h-24.1v19.2H561V366.7z"/>
			</g>
			<g>
				<path fill="#FFFFFF" d="M275,269.4v23h24.1v-23h12v57.5h-12v-23H275v23h-12v-57.5H275z"/>
				<path fill="#FFFFFF" d="M331.2,303.9v11.5h28.1v11.5h-32.1c-5.4,0-8-2.6-8-7.7v-42.2c0-5.1,2.7-7.7,8-7.7h32.1v11.5h-28.1v11.5      h16.1l-4,11.5H331.2z"/>
				<path fill="#FFFFFF" d="M405.9,303.9l9.6,23h-12l-10.1-23h-14.1v23h-12v-49.8c0-5.1,2.7-7.7,8-7.7h32.1c5.3,0,8,2.6,8,7.7v19.2      c0,5.1-2.7,7.7-8,7.7H405.9z M403.4,292.4v-11.5h-24.1v11.5H403.4z"/>
				<path fill="#FFFFFF" d="M471.6,277.1v42.2c0,5.1-2.7,7.7-8,7.7h-32.1c-5.4,0-8-2.6-8-7.7v-42.2c0-5.1,2.7-7.7,8-7.7h32.1      C468.9,269.4,471.6,271.9,471.6,277.1z M435.5,280.9v34.5h24.1v-34.5H435.5z M440.5,265.5h4l10-5.8l-4-3.8L440.5,265.5z"/>
				<path fill="#FFFFFF" d="M491.7,269.4v57.5h-12v-57.5H491.7z"/>
				<path fill="#FFFFFF" d="M543.9,280.8h-32.1v11.5h28.1c5.4,0,8,2.5,8,7.6v19.2c0,5.1-2.7,7.7-8,7.7h-40.1v-11.5l36.1,0v-11.5      h-28.1c-5.4,0-8-2.5-8-7.6v-19.2c0-5.1,2.7-7.7,8-7.7h40.1L543.9,280.8z"/>
				<path fill="#FFFFFF" d="M281,405.4h-32.1c-5.4,0-8-2.6-8-7.7v-49.8h12v46H281V405.4z"/>
				<path fill="#FFFFFF" d="M301.1,382.4v11.5h28.1v11.5h-32.1c-5.4,0-8-2.6-8-7.7v-42.2c0-5.1,2.7-7.7,8-7.7h32.1v11.5h-28.1v11.5      h16.1l-4,11.5H301.1z"/>
				<path fill="#FFFFFF" d="M349.2,347.9v57.5h-12v-57.5H349.2z"/>
				<path fill="#FFFFFF" d="M401.4,347.9v11.5h-16.1v46h-12v-46h-16.1v-11.5H401.4z"/>
				<path fill="#FFFFFF" d="M421.5,347.9v46h24.1l0-46h12v49.8c0,5.1-2.7,7.7-8,7.7h-32.1c-5.3,0-8-2.6-8-7.7v-49.8H421.5z"/>
				<path fill="#FFFFFF" d="M504.2,382.4l9.6,23h-12l-10.1-23h-14.1v23h-12v-49.8c0-5.1,2.7-7.7,8-7.7h32.1c5.4,0,8,2.6,8,7.7v19.2      c0,5.1-2.7,7.7-8,7.7H504.2z M501.7,370.9v-11.5h-24.1v11.5H501.7z"/>
				<path fill="#FFFFFF" d="M521.8,405.4v-49.9c0-5.1,2.7-7.7,8-7.7h32.1c5.4,0,8,2.6,8,7.7v49.9h-12v-15.4h-24.1v15.4H521.8z       M557.9,359.4h-24.1v19.2h24.1V359.4z"/>
			</g>
		</g>
		<g>
			<circle fill="#43D0C0" cx="415.7" cy="336.2" r="23.3"/>
			<g>
				<g>
					<path fill="#FFFFFF" d="M412.1,344.9h-9.7c-1.6,0-2.4-0.8-2.4-2.3v-8.1c0-1.5,0.8-2.3,2.4-2.3h7.3l-1.2,3.5h-4.9v5.8h7.3v-13.9       h3.6v15.1C414.5,344.1,413.7,344.9,412.1,344.9z"/>
					<path fill="#FFFFFF" d="M416.9,334.5c0-1.5,0.8-2.3,2.4-2.3h9.7c1.6,0,2.4,0.8,2.4,2.3v10.4h-3.6l0-9.3h-7.3v5.8h6.1l-1.2,3.5       h-6.1c-1.6,0-2.4-0.8-2.4-2.3V334.5z"/>
				</g>
			</g>
		</g>
	</g>
</g>
</svg>