<svg width="290" height="239" viewBox="0 0 290 239" fill="none" xmlns="http://www.w3.org/2000/svg">
<path d="M80.5978 67.6743C97.6384 67.6743 111.479 47.9284 111.479 30.8599C111.479 13.8333 97.6454 0 80.5978 0C63.5502 0 49.71 13.8263 49.71 30.8599C49.703 47.9284 63.5432 67.6743 80.5978 67.6743Z" fill="black" fill-opacity="0.09"/>
<path d="M329.088 38.7319H253.374V24.0829C253.374 20.0389 250.097 16.7549 246.046 16.7549C241.988 16.7549 238.725 20.0389 238.725 24.0829V38.7319H163.005C152.246 38.7319 143.475 47.4963 143.475 58.2756V84.0039L133.316 80.6083C130.646 79.6391 106.94 71.4117 85.1158 70.3379L82.2083 76.132H82.1456L90.373 140.202L80.5907 157.235L70.8293 140.202L79.0429 76.132H78.9662L76.0587 70.317C53.4122 71.4465 28.695 80.3085 27.5864 80.6919C27.189 80.8523 26.924 81.1521 26.5475 81.3334C25.7596 81.7239 25.0066 82.1352 24.3163 82.7C23.7306 83.1672 23.2286 83.6343 22.7406 84.1921C22.2107 84.7917 21.7435 85.4123 21.3391 86.1095C20.9208 86.8068 20.6209 87.5319 20.356 88.3198C20.2235 88.7451 19.9307 89.0868 19.8121 89.54L0.289362 177.427C-1.1609 184.009 2.98072 190.535 9.55571 192.014C10.4552 192.216 11.3406 192.306 12.2192 192.306C17.818 192.306 22.8661 188.409 24.1281 182.768L42.1657 101.616C43.4138 101.226 44.8501 100.807 46.391 100.354V183.716L42.0054 238.157H71.422L74.6781 197.689C76.484 198.519 78.4711 198.965 80.5838 198.965C82.6755 198.965 84.6835 198.526 86.5103 197.689L89.7595 238.157H119.162L114.777 183.716V100.354C120.982 102.146 125.172 103.61 125.284 103.673C125.333 103.687 125.375 103.687 125.437 103.687C125.472 103.715 125.514 103.715 125.577 103.743L143.475 109.718V175.503C143.475 186.261 152.239 195.012 163.005 195.012H198.578L187.018 238.157H202.204L213.757 195.012H238.725V238.157H253.374V195.012H278.35L289.91 238.157H305.075L293.528 195.012H329.095C339.86 195.012 348.632 186.261 348.632 175.503V58.2617C348.625 47.4823 339.853 38.7319 329.088 38.7319ZM338.87 175.503C338.87 180.879 334.478 185.257 329.095 185.257H163.012C157.636 185.257 153.25 180.858 153.25 175.503V112.974L184.194 123.3C185.498 123.74 186.781 123.914 188.064 123.914C193.167 123.914 197.951 120.686 199.659 115.561C199.938 114.724 199.875 113.846 199.952 112.974L273.364 79.0395C274.584 78.4817 275.121 76.9826 274.55 75.7834C273.992 74.5702 272.528 74.0054 271.3 74.612L199.436 107.863C198.243 104.356 195.684 101.386 191.933 100.145L153.257 87.2251V58.2686C153.257 52.8929 157.65 48.5212 163.019 48.5212H329.095C334.471 48.5212 338.87 52.8929 338.87 58.2686V175.503Z" fill="black" fill-opacity="0.09"/>
</svg>
