<svg width="279" height="326" viewBox="0 0 279 326" fill="none" xmlns="http://www.w3.org/2000/svg">
<path d="M209.4 55.8747C225.444 67.0892 236.694 86.0665 238.743 108.095C245.286 111.503 252.548 113.463 260.248 113.463C288.357 113.463 311.139 88.0651 311.139 56.734C311.139 25.398 288.357 0 260.248 0C232.407 0.0096552 209.824 24.9539 209.4 55.8747ZM176.059 172.036C204.168 172.036 226.951 146.634 226.951 115.302C226.951 83.9713 204.164 58.5733 176.059 58.5733C147.955 58.5733 125.159 83.9761 125.159 115.307C125.159 146.638 147.955 172.036 176.059 172.036ZM197.647 175.903H154.463C118.533 175.903 89.3028 208.494 89.3028 248.549V307.422L89.437 308.344L93.0746 309.613C127.363 321.557 157.152 325.54 181.672 325.54C229.562 325.54 257.32 310.318 259.031 309.348L262.43 307.431H262.794V248.549C262.807 208.494 233.577 175.903 197.647 175.903ZM281.844 117.335H238.994C238.531 136.447 231.212 153.658 219.637 166.036C251.574 176.623 274.941 209.639 274.941 248.636V266.778C317.25 265.05 341.63 251.682 343.237 250.784L346.636 248.863H347V189.971C347 149.921 317.769 117.335 281.844 117.335ZM86.7608 113.473C96.7166 113.473 105.979 110.233 113.826 104.715C116.321 86.5782 125.042 70.7292 137.501 59.9347C137.553 58.8726 137.644 57.8202 137.644 56.7484C137.644 25.4125 114.857 0.0144818 86.7608 0.0144818C58.6475 0.0144818 35.8692 25.4125 35.8692 56.7484C35.8692 88.0699 58.6475 113.473 86.7608 113.473ZM132.465 166.036C120.946 153.72 113.653 136.602 113.12 117.605C111.531 117.475 109.959 117.335 108.34 117.335H65.1605C29.2306 117.335 0 149.921 0 189.971V248.853L0.134244 249.761L3.77183 251.04C31.2789 260.613 55.8283 265.026 77.1515 266.416V248.636C77.1602 209.639 100.519 176.632 132.465 166.036Z" fill="#5F5B5B" fill-opacity="0.09"/>
</svg>
