<svg width="283" height="272" viewBox="0 0 283 272" fill="none" xmlns="http://www.w3.org/2000/svg">
<path d="M277.823 9.57409C277.321 7.71709 275.814 6.26658 273.884 5.7806L273.809 5.76152C246.625 -1.07502 217.923 -0.952601 190.804 6.1166C167.476 12.1974 145.84 23.2869 127.599 38.4259C110.2 34.3139 91.9173 34.4978 74.6075 38.9999C56.7547 43.6424 40.4062 52.7419 27.3283 65.3137L2.38644 89.2935C0.233806 91.3631 0.233806 94.7188 2.38644 96.7888L34.3314 127.5L2.38644 158.212C0.233806 160.281 0.233806 163.637 2.38644 165.707C3.46303 166.742 4.87369 167.259 6.28434 167.259C7.69499 167.259 9.10619 166.742 10.1822 165.707L42.1272 134.996L50.8916 143.422L36.1346 157.609C33.9819 159.679 33.9819 163.034 36.1346 165.104L45.9722 174.562C30.9627 190.867 22.5369 212.281 22.705 234.122L22.7932 245.513C22.8158 248.409 25.2518 250.752 28.2644 250.773L40.1119 250.858C40.3351 250.859 40.5573 250.86 40.7805 250.86C63.2661 250.86 85.2715 242.777 102.064 228.489L112.34 238.367C113.373 239.361 114.776 239.92 116.237 239.92C117.699 239.92 119.102 239.361 120.135 238.367L134.892 224.18L182.96 270.392C184.037 271.426 185.448 271.944 186.858 271.944C188.269 271.944 189.68 271.426 190.756 270.392L216.32 245.815C229.224 233.41 238.625 217.915 243.506 201.011C248.368 184.172 248.633 166.313 244.281 149.347C259.745 131.959 271.091 111.402 277.356 89.2564C284.72 63.2304 284.881 35.677 277.823 9.57409ZM35.1247 72.809C56.8093 51.9623 87.8011 42.5649 117.758 47.2943L42.1272 120.005L14.0801 93.0415L35.1247 72.809ZM40.7833 240.26C40.5881 240.26 40.3897 240.259 40.1945 240.258L33.778 240.212L33.73 234.043C33.5834 215.022 40.8384 196.368 53.7834 182.07L94.2546 220.979C79.5302 233.301 60.3648 240.26 40.7833 240.26ZM116.239 227.124L106.088 217.365C106.088 217.365 106.088 217.365 106.087 217.364L106.087 217.364L57.5446 170.697C57.5441 170.696 57.5435 170.695 57.5424 170.695C57.5413 170.694 57.5408 170.693 57.5402 170.692L47.8288 161.356L58.6879 150.916L127.098 216.684L116.239 227.124ZM208.526 238.32L186.86 259.148L158.813 232.185L235.06 158.883C239.962 187.661 230.145 217.534 208.526 238.32ZM227.985 150.694L151.017 224.689L150.134 223.841C150.133 223.84 150.133 223.839 150.132 223.838L49.923 127.5L65.266 112.749L139.077 183.71C140.153 184.745 141.564 185.263 142.975 185.263C144.385 185.263 145.797 184.745 146.873 183.71C149.025 181.641 149.025 178.285 146.873 176.215L73.0623 105.254L126.777 53.6136C163.597 18.2157 217.417 3.67134 267.936 15.2744C279.872 63.7529 264.72 115.377 227.985 150.694Z" fill="#5F5B5B" fill-opacity="0.09"/>
<path d="M277.823 9.57409C277.321 7.71709 275.814 6.26658 273.884 5.7806L273.809 5.76152C246.625 -1.07502 217.923 -0.952601 190.804 6.1166C167.476 12.1974 145.84 23.2869 127.599 38.4259C110.2 34.3139 91.9173 34.4978 74.6075 38.9999C56.7547 43.6424 40.4062 52.7419 27.3283 65.3137L2.38644 89.2935C0.233806 91.3631 0.233806 94.7188 2.38644 96.7888L34.3314 127.5L2.38644 158.212C0.233806 160.281 0.233806 163.637 2.38644 165.707C3.46303 166.742 4.87369 167.259 6.28434 167.259C7.69499 167.259 9.10619 166.742 10.1822 165.707L42.1272 134.996L50.8916 143.422L36.1346 157.609C33.9819 159.679 33.9819 163.034 36.1346 165.104L45.9722 174.562C30.9627 190.867 22.5369 212.281 22.705 234.122L22.7932 245.513C22.8158 248.409 25.2518 250.752 28.2644 250.773L40.1119 250.858C40.3351 250.859 40.5573 250.86 40.7805 250.86C63.2661 250.86 85.2715 242.777 102.064 228.489L112.34 238.367C113.373 239.361 114.776 239.92 116.237 239.92C117.699 239.92 119.102 239.361 120.135 238.367L134.892 224.18L182.96 270.392C184.037 271.426 185.448 271.944 186.858 271.944C188.269 271.944 189.68 271.426 190.756 270.392L216.32 245.815C229.224 233.41 238.625 217.915 243.506 201.011C248.368 184.172 248.633 166.313 244.281 149.347C259.745 131.959 271.091 111.402 277.356 89.2564C284.72 63.2304 284.881 35.677 277.823 9.57409ZM35.1247 72.809C56.8093 51.9623 87.8011 42.5649 117.758 47.2943L42.1272 120.005L14.0801 93.0415L35.1247 72.809ZM40.7833 240.26C40.5881 240.26 40.3897 240.259 40.1945 240.258L33.778 240.212L33.73 234.043C33.5834 215.022 40.8384 196.368 53.7834 182.07L94.2546 220.979C79.5302 233.301 60.3648 240.26 40.7833 240.26ZM116.239 227.124L106.088 217.365C106.088 217.365 106.088 217.365 106.087 217.364L106.087 217.364L57.5446 170.697C57.5441 170.696 57.5435 170.695 57.5424 170.695C57.5413 170.694 57.5408 170.693 57.5402 170.692L47.8288 161.356L58.6879 150.916L127.098 216.684L116.239 227.124ZM208.526 238.32L186.86 259.148L158.813 232.185L235.06 158.883C239.962 187.661 230.145 217.534 208.526 238.32ZM227.985 150.694L151.017 224.689L150.134 223.841C150.133 223.84 150.133 223.839 150.132 223.838L49.923 127.5L65.266 112.749L139.077 183.71C140.153 184.745 141.564 185.263 142.975 185.263C144.385 185.263 145.797 184.745 146.873 183.71C149.025 181.641 149.025 178.285 146.873 176.215L73.0623 105.254L126.777 53.6136C163.597 18.2157 217.417 3.67134 267.936 15.2744C279.872 63.7529 264.72 115.377 227.985 150.694Z" fill="#5F5B5B" fill-opacity="0.09"/>
<path d="M277.823 9.57409C277.321 7.71709 275.814 6.26658 273.884 5.7806L273.809 5.76152C246.625 -1.07502 217.923 -0.952601 190.804 6.1166C167.476 12.1974 145.84 23.2869 127.599 38.4259C110.2 34.3139 91.9173 34.4978 74.6075 38.9999C56.7547 43.6424 40.4062 52.7419 27.3283 65.3137L2.38644 89.2935C0.233806 91.3631 0.233806 94.7188 2.38644 96.7888L34.3314 127.5L2.38644 158.212C0.233806 160.281 0.233806 163.637 2.38644 165.707C3.46303 166.742 4.87369 167.259 6.28434 167.259C7.69499 167.259 9.10619 166.742 10.1822 165.707L42.1272 134.996L50.8916 143.422L36.1346 157.609C33.9819 159.679 33.9819 163.034 36.1346 165.104L45.9722 174.562C30.9627 190.867 22.5369 212.281 22.705 234.122L22.7932 245.513C22.8158 248.409 25.2518 250.752 28.2644 250.773L40.1119 250.858C40.3351 250.859 40.5573 250.86 40.7805 250.86C63.2661 250.86 85.2715 242.777 102.064 228.489L112.34 238.367C113.373 239.361 114.776 239.92 116.237 239.92C117.699 239.92 119.102 239.361 120.135 238.367L134.892 224.18L182.96 270.392C184.037 271.426 185.448 271.944 186.858 271.944C188.269 271.944 189.68 271.426 190.756 270.392L216.32 245.815C229.224 233.41 238.625 217.915 243.506 201.011C248.368 184.172 248.633 166.313 244.281 149.347C259.745 131.959 271.091 111.402 277.356 89.2564C284.72 63.2304 284.881 35.677 277.823 9.57409ZM35.1247 72.809C56.8093 51.9623 87.8011 42.5649 117.758 47.2943L42.1272 120.005L14.0801 93.0415L35.1247 72.809ZM40.7833 240.26C40.5881 240.26 40.3897 240.259 40.1945 240.258L33.778 240.212L33.73 234.043C33.5834 215.022 40.8384 196.368 53.7834 182.07L94.2546 220.979C79.5302 233.301 60.3648 240.26 40.7833 240.26ZM116.239 227.124L106.088 217.365C106.088 217.365 106.088 217.365 106.087 217.364L106.087 217.364L57.5446 170.697C57.5441 170.696 57.5435 170.695 57.5424 170.695C57.5413 170.694 57.5408 170.693 57.5402 170.692L47.8288 161.356L58.6879 150.916L127.098 216.684L116.239 227.124ZM208.526 238.32L186.86 259.148L158.813 232.185L235.06 158.883C239.962 187.661 230.145 217.534 208.526 238.32ZM227.985 150.694L151.017 224.689L150.134 223.841C150.133 223.84 150.133 223.839 150.132 223.838L49.923 127.5L65.266 112.749L139.077 183.71C140.153 184.745 141.564 185.263 142.975 185.263C144.385 185.263 145.797 184.745 146.873 183.71C149.025 181.641 149.025 178.285 146.873 176.215L73.0623 105.254L126.777 53.6136C163.597 18.2157 217.417 3.67134 267.936 15.2744C279.872 63.7529 264.72 115.377 227.985 150.694Z" fill="#5F5B5B" fill-opacity="0.09"/>
<path d="M178.879 48.9741C164.471 48.9741 150.926 54.3686 140.738 64.1629C130.55 73.9571 124.939 86.98 124.939 100.831C124.939 114.683 130.55 127.706 140.738 137.5C150.926 147.294 164.472 152.689 178.88 152.689C193.288 152.689 206.833 147.294 217.021 137.5C238.053 117.281 238.053 84.3821 217.021 64.1623C206.832 54.3686 193.287 48.9741 178.879 48.9741ZM136.222 105.323C143.198 103.852 150.539 105.833 155.72 110.815L168.81 123.4C173.908 128.301 175.992 135.257 174.58 141.886C164.741 140.952 155.617 136.816 148.533 130.006C141.54 123.281 137.265 114.644 136.222 105.323ZM166.995 102.494C166.995 99.8046 168.084 97.2761 170.061 95.3746L172.888 92.658C174.865 90.7565 177.495 89.7098 180.292 89.7098C183.089 89.7098 185.718 90.757 187.696 92.6585C189.674 94.56 190.763 97.0874 190.763 99.777C190.763 102.467 189.674 104.994 187.696 106.896C187.696 106.896 187.696 106.896 187.696 106.896L184.871 109.612C180.789 113.537 174.147 113.538 170.063 109.613L170.061 109.611C168.083 107.71 166.995 105.182 166.995 102.494ZM209.225 130.006C202.779 136.203 194.641 140.177 185.814 141.548C186.642 135.025 185.282 128.42 181.948 122.694C185.878 121.895 189.62 120.036 192.666 117.107L195.492 114.391V114.391C199.552 110.488 201.788 105.298 201.788 99.7781C201.788 94.258 199.552 89.068 195.492 85.1654C191.432 81.2616 186.034 79.1116 180.292 79.1116C174.55 79.1116 169.152 81.2616 165.092 85.1648L162.266 87.8809C159.288 90.7448 157.296 94.302 156.443 98.1723C150.374 94.9035 143.37 93.6135 136.466 94.5097C137.837 85.8909 142 77.9398 148.534 71.6587C156.639 63.8655 167.416 59.5739 178.879 59.5739C190.342 59.5739 201.119 63.8655 209.225 71.6587C225.958 87.7442 225.958 113.919 209.225 130.006Z" fill="#5F5B5B" fill-opacity="0.09"/>
<path d="M178.879 48.9741C164.471 48.9741 150.926 54.3686 140.738 64.1629C130.55 73.9571 124.939 86.98 124.939 100.831C124.939 114.683 130.55 127.706 140.738 137.5C150.926 147.294 164.472 152.689 178.88 152.689C193.288 152.689 206.833 147.294 217.021 137.5C238.053 117.281 238.053 84.3821 217.021 64.1623C206.832 54.3686 193.287 48.9741 178.879 48.9741ZM136.222 105.323C143.198 103.852 150.539 105.833 155.72 110.815L168.81 123.4C173.908 128.301 175.992 135.257 174.58 141.886C164.741 140.952 155.617 136.816 148.533 130.006C141.54 123.281 137.265 114.644 136.222 105.323ZM166.995 102.494C166.995 99.8046 168.084 97.2761 170.061 95.3746L172.888 92.658C174.865 90.7565 177.495 89.7098 180.292 89.7098C183.089 89.7098 185.718 90.757 187.696 92.6585C189.674 94.56 190.763 97.0874 190.763 99.777C190.763 102.467 189.674 104.994 187.696 106.896C187.696 106.896 187.696 106.896 187.696 106.896L184.871 109.612C180.789 113.537 174.147 113.538 170.063 109.613L170.061 109.611C168.083 107.71 166.995 105.182 166.995 102.494ZM209.225 130.006C202.779 136.203 194.641 140.177 185.814 141.548C186.642 135.025 185.282 128.42 181.948 122.694C185.878 121.895 189.62 120.036 192.666 117.107L195.492 114.391V114.391C199.552 110.488 201.788 105.298 201.788 99.7781C201.788 94.258 199.552 89.068 195.492 85.1654C191.432 81.2616 186.034 79.1116 180.292 79.1116C174.55 79.1116 169.152 81.2616 165.092 85.1648L162.266 87.8809C159.288 90.7448 157.296 94.302 156.443 98.1723C150.374 94.9035 143.37 93.6135 136.466 94.5097C137.837 85.8909 142 77.9398 148.534 71.6587C156.639 63.8655 167.416 59.5739 178.879 59.5739C190.342 59.5739 201.119 63.8655 209.225 71.6587C225.958 87.7442 225.958 113.919 209.225 130.006Z" fill="#5F5B5B" fill-opacity="0.09"/>
<path d="M178.879 48.9741C164.471 48.9741 150.926 54.3686 140.738 64.1629C130.55 73.9571 124.939 86.98 124.939 100.831C124.939 114.683 130.55 127.706 140.738 137.5C150.926 147.294 164.472 152.689 178.88 152.689C193.288 152.689 206.833 147.294 217.021 137.5C238.053 117.281 238.053 84.3821 217.021 64.1623C206.832 54.3686 193.287 48.9741 178.879 48.9741ZM136.222 105.323C143.198 103.852 150.539 105.833 155.72 110.815L168.81 123.4C173.908 128.301 175.992 135.257 174.58 141.886C164.741 140.952 155.617 136.816 148.533 130.006C141.54 123.281 137.265 114.644 136.222 105.323ZM166.995 102.494C166.995 99.8046 168.084 97.2761 170.061 95.3746L172.888 92.658C174.865 90.7565 177.495 89.7098 180.292 89.7098C183.089 89.7098 185.718 90.757 187.696 92.6585C189.674 94.56 190.763 97.0874 190.763 99.777C190.763 102.467 189.674 104.994 187.696 106.896C187.696 106.896 187.696 106.896 187.696 106.896L184.871 109.612C180.789 113.537 174.147 113.538 170.063 109.613L170.061 109.611C168.083 107.71 166.995 105.182 166.995 102.494ZM209.225 130.006C202.779 136.203 194.641 140.177 185.814 141.548C186.642 135.025 185.282 128.42 181.948 122.694C185.878 121.895 189.62 120.036 192.666 117.107L195.492 114.391V114.391C199.552 110.488 201.788 105.298 201.788 99.7781C201.788 94.258 199.552 89.068 195.492 85.1654C191.432 81.2616 186.034 79.1116 180.292 79.1116C174.55 79.1116 169.152 81.2616 165.092 85.1648L162.266 87.8809C159.288 90.7448 157.296 94.302 156.443 98.1723C150.374 94.9035 143.37 93.6135 136.466 94.5097C137.837 85.8909 142 77.9398 148.534 71.6587C156.639 63.8655 167.416 59.5739 178.879 59.5739C190.342 59.5739 201.119 63.8655 209.225 71.6587C225.958 87.7442 225.958 113.919 209.225 130.006Z" fill="#5F5B5B" fill-opacity="0.09"/>
<path d="M158.567 189.654C157.118 189.654 155.696 190.216 154.67 191.207C153.645 192.192 153.055 193.559 153.055 194.953C153.055 196.347 153.645 197.715 154.67 198.7C155.696 199.685 157.118 200.252 158.567 200.252C160.017 200.252 161.439 199.686 162.465 198.7C163.49 197.715 164.08 196.347 164.08 194.953C164.08 193.559 163.49 192.192 162.465 191.207C161.439 190.216 160.017 189.654 158.567 189.654Z" fill="#5F5B5B" fill-opacity="0.09"/>
<path d="M158.567 189.654C157.118 189.654 155.696 190.216 154.67 191.207C153.645 192.192 153.055 193.559 153.055 194.953C153.055 196.347 153.645 197.715 154.67 198.7C155.696 199.685 157.118 200.252 158.567 200.252C160.017 200.252 161.439 199.686 162.465 198.7C163.49 197.715 164.08 196.347 164.08 194.953C164.08 193.559 163.49 192.192 162.465 191.207C161.439 190.216 160.017 189.654 158.567 189.654Z" fill="#5F5B5B" fill-opacity="0.09"/>
<path d="M158.567 189.654C157.118 189.654 155.696 190.216 154.67 191.207C153.645 192.192 153.055 193.559 153.055 194.953C153.055 196.347 153.645 197.715 154.67 198.7C155.696 199.685 157.118 200.252 158.567 200.252C160.017 200.252 161.439 199.686 162.465 198.7C163.49 197.715 164.08 196.347 164.08 194.953C164.08 193.559 163.49 192.192 162.465 191.207C161.439 190.216 160.017 189.654 158.567 189.654Z" fill="#5F5B5B" fill-opacity="0.09"/>
<path d="M92.4974 249.95L78.9725 262.952C76.8198 265.022 76.8198 268.378 78.9725 270.448C80.0491 271.482 81.4597 272 82.8704 272C84.281 272 85.6922 271.482 86.7683 270.448L100.293 257.445C102.446 255.376 102.446 252.02 100.293 249.95C98.1406 247.88 94.6501 247.88 92.4974 249.95Z" fill="#5F5B5B" fill-opacity="0.09"/>
<path d="M92.4974 249.95L78.9725 262.952C76.8198 265.022 76.8198 268.378 78.9725 270.448C80.0491 271.482 81.4597 272 82.8704 272C84.281 272 85.6922 271.482 86.7683 270.448L100.293 257.445C102.446 255.376 102.446 252.02 100.293 249.95C98.1406 247.88 94.6501 247.88 92.4974 249.95Z" fill="#5F5B5B" fill-opacity="0.09"/>
<path d="M92.4974 249.95L78.9725 262.952C76.8198 265.022 76.8198 268.378 78.9725 270.448C80.0491 271.482 81.4597 272 82.8704 272C84.281 272 85.6922 271.482 86.7683 270.448L100.293 257.445C102.446 255.376 102.446 252.02 100.293 249.95C98.1406 247.88 94.6501 247.88 92.4974 249.95Z" fill="#5F5B5B" fill-opacity="0.09"/>
</svg>
